HIERARCHY
ROOT Hips
{
	OFFSET 0.00000 0.00000 0.00000
	CHANNELS 6 Xposition Yposition Zposition Zrotation Yrotation Xrotation 
	JOINT LHipJoint
	{
		OFFSET 0 0 0
		CHANNELS 3 Zrotation Yrotation Xrotation
		JOINT LeftHip
		{
			OFFSET 1.28366 -1.58472 0.87544
			CHANNELS 3 Zrotation Yrotation Xrotation
			JOINT LeftKnee
			{
				OFFSET 2.18587 -6.00562 0.00000
				CHANNELS 3 Zrotation Yrotation Xrotation
				JOINT LeftAnkle
				{
					OFFSET 2.39085 -6.56880 0.00000
					CHANNELS 3 Zrotation Yrotation Xrotation
					JOINT LeftToe
					{
						OFFSET 0.12003 -0.32979 2.03101
						CHANNELS 3 Zrotation Yrotation Xrotation
						End Site
						{
							OFFSET 0.00000 -0.00000 1.04074
						}
					}
				}
			}
		}
	}
	JOINT RHipJoint
	{
		OFFSET 0 0 0
		CHANNELS 3 Zrotation Yrotation Xrotation
		JOINT RightHip
		{
			OFFSET -1.21795 -1.58472 0.87544
			CHANNELS 3 Zrotation Yrotation Xrotation
			JOINT RightKnee
			{
				OFFSET -2.22714 -6.11902 0.00000
				CHANNELS 3 Zrotation Yrotation Xrotation
				JOINT RightAnkle
				{
					OFFSET -2.40306 -6.60235 0.00000
					CHANNELS 3 Zrotation Yrotation Xrotation
					JOINT RightToe
					{
						OFFSET -0.15519 -0.42640 1.91430
						CHANNELS 3 Zrotation Yrotation Xrotation
						End Site
						{
							OFFSET -0.00000 -0.00000 0.99082
						}
					}
				}
			}
		}
	}
	JOINT lowerback
	{
		OFFSET 0 0 0
		CHANNELS 3 Zrotation Yrotation Xrotation
		JOINT Chest
		{
			OFFSET 0.01180 1.76430 -0.06387
			CHANNELS 3 Zrotation Yrotation Xrotation
			JOINT Chest2
			{
				OFFSET -0.00388 1.74651 0.09536
				CHANNELS 3 Zrotation Yrotation Xrotation
				JOINT lowerneck
				{
					OFFSET 0 0 0
					CHANNELS 3 Zrotation Yrotation Xrotation
					JOINT Neck
					{
						OFFSET 0.04111 1.46174 0.14397
						CHANNELS 3 Zrotation Yrotation Xrotation
						JOINT Head
						{
							OFFSET 0.00502 1.44580 -0.31711
							CHANNELS 3 Zrotation Yrotation Xrotation
							End Site
							{
								OFFSET -0.00395 1.49251 -0.12327
							}
						}
					}
				}
				JOINT LeftCollar
				{
					OFFSET 0 0 0
					CHANNELS 3 Zrotation Yrotation Xrotation
					JOINT LeftShoulder
					{
						OFFSET 2.70917 1.34870 -0.15417
CHANNELS 3 Zrotation Xrotation Yrotation
						JOINT LeftElbow
						{
OFFSET 0 -4.466100 -0.000000
CHANNELS 3 Zrotation Xrotation Yrotation
							JOINT LeftWrist
							{
OFFSET 0 -3.414140 0.000000
CHANNELS 3 Zrotation Xrotation Yrotation
								JOINT lhand
								{
									OFFSET 0 0 0
CHANNELS 3 Zrotation Xrotation Yrotation
									JOINT LFingers
									{
OFFSET 0 -0.328300 0.000000
CHANNELS 3 Zrotation Xrotation Yrotation
										End Site
										{
OFFSET 0 -0.264680 0.000000
										}
									}
								}
								JOINT LThumb
								{
OFFSET 0 0.000000 0.000000
CHANNELS 3 Zrotation Xrotation Yrotation
									End Site
									{
OFFSET 0 -0.268720 0.268720
									}
								}
							}
						}
					}
				}
				JOINT RightCollar
				{
					OFFSET 0 0 0
					CHANNELS 3 Zrotation Yrotation Xrotation
					JOINT RightShoulder
					{
						OFFSET -3.06316 1.13725 -0.10883
CHANNELS 3 Zrotation Xrotation Yrotation
						JOINT RightElbow
						{
OFFSET 0 -4.404310 0.000000
CHANNELS 3 Zrotation Xrotation Yrotation
							JOINT RightWrist
							{
OFFSET 0 -3.046880 0.000000
CHANNELS 3 Zrotation Xrotation Yrotation
								JOINT rhand
								{
									OFFSET 0 0 0
CHANNELS 3 Zrotation Xrotation Yrotation
									JOINT RFingers
									{
OFFSET 0 -0.500490 0.000000
CHANNELS 3 Zrotation Xrotation Yrotation
										End Site
										{
OFFSET 0 -0.403510 0.000000
										}
									}
								}
								JOINT RThumb
								{
OFFSET 0 0.000000 0.000000
CHANNELS 3 Zrotation Xrotation Yrotation
									End Site
									{
OFFSET 0 -0.409670 0.409670
									}
								}
							}
						}
					}
				}
			}
		}
	}
}
MOTION
Frames: 12
Frame Time: 0.008333333333333333
39.984817 13.669339 16.471220 367.655523 -55.197153 363.566848 0.000000 0.000000 0.000000 -5.219502 3.122458 -17.863941 4.992562 13.369971 40.779655 2.432941 -10.544992 -28.065918 4.111129 -12.306260 -36.824870 0.000000 0.000000 0.000000 -7.637975 -5.104147 -54.249102 -26.949513 -18.799358 110.718619 -1.097284 4.758157 -18.782853 -0.110042 2.139072 -5.890021 -1.911775 6.461503 9.281505 -3.482487 8.042391 -6.236997 -4.255948 3.806958 -11.710358 -1.835679 -6.784853 -15.356885 2.533989 -9.012985 7.997275 0.287537 -4.294296 5.084359 0.000000 0.000000 0.000000 37.019311 -5.249984 -24.830284 109.821286 -58.454981 77.075949 79.077624 35.165867 -48.669193 0.000000 0.000000 0.000000 -7.125000 0.000000 0.000000 153.345638 -68.603675 164.493805 0.000000 0.000000 0.000000 -40.654824 -7.990869 51.298598 -119.455775 -56.450778 -85.205127 -62.641665 -50.034185 -35.256826 0.000000 0.000000 0.000000 7.125000 0.000000 0.000000 -14.940141 -25.486360 -20.394157
39.257946 14.031637 16.260932 366.131504 -54.708827 364.743237 0.000000 0.000000 0.000000 -3.438354 2.660775 -9.143541 2.536936 9.885179 28.622652 1.288551 -5.451244 -20.307313 4.400021 -12.674304 -38.161551 0.000000 0.000000 0.000000 -8.776990 -3.281404 -53.736794 -24.275087 -19.550633 102.592169 -0.553103 4.741326 -13.214574 -0.083584 1.861995 -5.124528 -1.041579 5.385274 8.531074 -2.647141 6.812326 -6.795366 -3.557761 3.185556 -11.935417 -3.182811 -8.630471 -14.296771 4.133307 -11.439645 7.837244 0.791706 -5.429297 5.086870 0.000000 0.000000 0.000000 43.654246 -3.045813 -29.360546 120.963566 -56.037623 86.457214 75.429384 40.711817 -43.393260 0.000000 0.000000 0.000000 -7.125000 0.000000 0.000000 135.756231 -72.194057 149.700009 0.000000 0.000000 0.000000 -42.979233 -9.277708 40.656518 -106.886557 -58.866686 -74.565992 -57.641118 -55.118531 -33.409702 0.000000 0.000000 0.000000 7.125000 0.000000 0.000000 -13.159051 -19.861482 -17.204998
38.437251 14.453520 16.003081 364.371240 -53.788310 366.456169 0.000000 0.000000 0.000000 -1.323456 1.094736 0.245784 0.753689 5.515742 15.392589 0.145753 1.048239 -7.476778 3.361637 -11.250549 -33.138964 0.000000 0.000000 0.000000 -8.400243 -1.293317 -51.090757 -20.282945 -19.991695 90.827308 -0.175762 2.618150 -7.424605 -0.025504 1.030546 -2.832911 -0.940761 4.162728 6.562449 -1.178928 5.343810 -7.276541 -1.616756 2.562846 -11.474208 -4.408397 -10.154617 -13.724698 5.052597 -13.417633 8.211890 1.066365 -6.372735 5.326792 0.000000 0.000000 0.000000 50.366861 -2.070712 -35.236903 128.779303 -53.472611 92.846980 67.880113 37.569772 -33.312414 0.000000 0.000000 0.000000 -7.125000 0.000000 0.000000 81.632582 -41.147549 63.864101 0.000000 0.000000 0.000000 -47.093238 -14.037428 29.513376 -80.745902 -59.618330 -51.999604 -48.180349 -54.107201 -27.415066 0.000000 0.000000 0.000000 7.125000 0.000000 0.000000 -10.151993 -7.387791 -11.551027
37.546216 14.881760 15.676377 362.949995 -52.079503 368.230199 0.000000 0.000000 0.000000 1.491273 1.241168 9.004286 0.002110 0.087324 0.240042 -0.026339 11.249761 7.469948 1.030736 -6.437691 -18.067165 0.000000 0.000000 0.000000 -7.163885 1.245535 -46.257230 -15.527045 -19.509885 76.817226 -0.027245 -0.396813 -3.280218 -0.043837 1.349443 -3.710770 -1.719958 2.839583 4.066024 0.323442 3.626292 -7.753572 0.829397 1.880846 -10.674164 -4.877723 -11.147135 -13.433225 5.703207 -14.806325 8.706585 1.180604 -7.015129 5.583934 0.000000 0.000000 0.000000 58.077529 -3.894333 -41.981180 133.658764 -51.408073 96.717391 58.471555 17.434019 -16.001794 0.000000 0.000000 0.000000 -7.125000 0.000000 0.000000 34.805962 55.081404 -9.600059 0.000000 0.000000 0.000000 -51.159434 -22.112412 17.942834 -49.186648 -52.625616 -25.535534 -35.648089 -50.664152 -13.124755 0.000000 0.000000 0.000000 7.125000 0.000000 0.000000 -5.620866 14.011448 -4.126226
36.627358 15.229200 15.276949 361.959770 -49.653461 369.891354 0.000000 0.000000 0.000000 3.380582 -2.418367 6.355429 0.111615 1.670363 4.606577 -0.215992 19.053423 11.419574 0.087993 -1.911055 -5.259945 0.000000 0.000000 0.000000 -5.228182 4.502514 -40.327336 -11.137539 -17.992756 63.216520 0.002440 -1.139604 -1.173173 -0.207219 2.921003 -8.059628 -2.548999 1.706464 1.712599 1.175833 2.119165 -8.185432 2.466833 1.247962 -9.766228 -4.914013 -11.682170 -13.826784 6.588754 -15.711869 9.608043 1.297427 -7.362042 6.059707 0.000000 0.000000 0.000000 66.413009 -8.801383 -48.540252 136.685079 -49.914500 99.058229 54.001415 3.097581 -1.623765 0.000000 0.000000 0.000000 -7.125000 0.000000 0.000000 21.812112 32.157492 7.284260 0.000000 0.000000 0.000000 -54.352701 -31.518185 1.412088 -28.349552 -39.364615 -10.371961 -29.627989 -62.010139 1.211808 0.000000 0.000000 0.000000 7.125000 0.000000 0.000000 -2.438732 31.367795 -0.812800
35.737170 15.389596 14.818665 361.060826 -46.799062 371.229117 0.000000 0.000000 0.000000 5.212119 -6.061256 -5.000710 1.804898 8.408298 23.985551 0.257209 12.789753 12.066277 0.316077 -3.602097 -9.961007 0.000000 0.000000 0.000000 -2.075010 7.292135 -34.982649 -8.184821 -16.251062 53.221737 0.010881 1.798859 0.575075 -0.459278 4.346714 -12.054234 -2.654403 1.071606 0.191289 1.388877 1.297477 -8.270613 2.858989 0.850667 -8.909842 -5.019764 -11.853542 -14.795331 7.393560 -16.073213 10.295684 1.433598 -7.431960 6.540329 0.000000 0.000000 0.000000 73.788886 -14.605005 -53.185736 139.382049 -48.430100 101.099231 52.026880 3.887281 3.645203 0.000000 0.000000 0.000000 -7.125000 0.000000 0.000000 18.652054 24.061858 9.936630 0.000000 0.000000 0.000000 -58.504161 -39.176534 -25.210567 -16.162408 -25.721289 -3.727219 -30.949924 -63.075752 3.801072 0.000000 0.000000 0.000000 7.125000 0.000000 0.000000 -3.565244 34.392793 -0.930057
34.892654 15.340547 14.311898 359.926189 -44.101166 371.586496 0.000000 0.000000 0.000000 7.334814 -7.873961 -14.761582 5.355356 13.771073 42.331999 0.407925 2.198227 11.509374 0.694801 -5.328486 -14.847814 0.000000 0.000000 0.000000 2.814241 8.684817 -30.648932 -7.240847 -15.531410 49.779348 0.031004 4.636400 -1.954150 -0.489340 4.485330 -12.446379 -2.170835 1.029563 0.652054 1.341161 1.271351 -7.938479 2.532647 0.801245 -8.794365 -5.214575 -11.503660 -15.419636 7.567198 -15.551540 10.287467 1.545553 -7.154636 6.639994 0.000000 0.000000 0.000000 78.886556 -18.759902 -55.971730 142.563304 -46.475633 103.443978 52.898351 1.445228 8.416060 0.000000 0.000000 0.000000 -7.125000 0.000000 0.000000 17.882255 16.586750 12.671352 0.000000 0.000000 0.000000 -61.723270 -40.258100 -41.230348 -12.269573 -20.207669 -2.194478 -32.932216 -51.733476 3.528492 0.000000 0.000000 0.000000 7.125000 0.000000 0.000000 -5.192935 34.146616 -1.387494
34.047594 15.167321 13.776585 358.534815 -42.204093 370.998816 0.000000 0.000000 0.000000 9.085665 -9.574638 -22.794802 10.014699 17.403852 59.517728 0.052969 -5.178326 8.904736 0.781396 -5.643353 -15.753034 0.000000 0.000000 0.000000 9.065749 9.019991 -26.660666 -7.481645 -15.724299 50.673064 -0.316999 4.852108 -10.024492 -0.575462 4.856983 -13.501155 -1.809339 1.408956 3.231005 1.377952 1.799439 -7.557534 2.273083 1.051715 -9.928387 -5.176235 -10.358067 -15.729437 6.696717 -13.874091 10.720656 1.459336 -6.396611 6.655162 0.000000 0.000000 0.000000 80.191142 -18.859271 -57.878060 145.485983 -44.460592 105.527640 56.436679 -3.849695 12.993607 0.000000 0.000000 0.000000 -7.125000 0.000000 0.000000 18.722278 8.244962 16.792499 0.000000 0.000000 0.000000 -57.398174 -34.621668 -27.631609 -19.225387 -29.661666 -5.160122 -37.634675 -64.855028 5.036078 0.000000 0.000000 0.000000 7.125000 0.000000 0.000000 -9.209165 36.199072 -2.011434
33.166187 14.935376 13.250065 356.405831 -40.646259 370.923641 0.000000 0.000000 0.000000 10.582136 -10.733413 -30.506478 14.512082 19.253982 73.756432 -0.381797 -10.909251 4.913899 0.867623 -5.939090 -16.607842 0.000000 0.000000 0.000000 16.085812 8.492084 -23.467360 -7.711376 -15.902702 51.516066 -0.941281 4.111299 -17.403002 -0.769624 5.601425 -15.632353 -1.169179 1.865045 6.226671 1.685282 2.505680 -7.295788 2.075901 1.370547 -11.472259 -4.059885 -8.186150 -16.309166 4.765143 -10.883976 11.529264 1.011744 -5.042166 6.657761 0.000000 0.000000 0.000000 78.134338 -14.226168 -58.578918 147.357809 -43.052772 106.822748 60.962327 -8.386713 15.721434 0.000000 0.000000 0.000000 -7.125000 0.000000 0.000000 20.438726 1.426659 21.342234 0.000000 0.000000 0.000000 -50.138503 -28.737507 -17.330941 -34.670263 -44.480880 -14.612936 -43.507970 -75.066099 5.089820 0.000000 0.000000 0.000000 7.125000 0.000000 0.000000 -14.181862 36.647598 -2.989003
32.281335 14.631902 12.765505 352.840012 -38.368194 372.929618 0.000000 0.000000 0.000000 12.113527 -11.983939 -39.970081 18.346350 19.933399 85.159869 -0.813389 -16.574615 0.555557 0.928145 -6.137474 -17.183696 0.000000 0.000000 0.000000 24.051346 6.231129 -23.332934 -8.177563 -16.248163 53.199553 -1.529464 3.365263 -22.532392 -0.655842 5.177965 -14.417304 0.912107 2.194917 7.632552 2.412390 3.307130 -7.211847 1.518423 1.614425 -12.202256 -1.907366 -5.211084 -16.850495 2.094404 -6.912817 11.667278 0.260150 -3.249203 6.437865 0.000000 0.000000 0.000000 73.648960 -6.156843 -56.547581 147.860837 -42.657880 107.164971 67.299792 -17.963776 18.074026 0.000000 0.000000 0.000000 -7.125000 0.000000 0.000000 23.100876 -7.519690 28.171030 0.000000 0.000000 0.000000 -42.418465 -22.745562 -8.924566 -60.671106 -56.465376 -34.904252 -48.034416 -71.916591 3.866989 0.000000 0.000000 0.000000 7.125000 0.000000 0.000000 -17.708354 35.266245 -4.410407
31.416202 14.240530 12.338200 349.453023 -35.339538 375.671052 0.000000 0.000000 0.000000 11.321137 -14.147765 -50.694831 21.099461 19.969545 93.216409 -1.132344 -20.659747 -2.321030 0.923613 -6.122741 -17.140883 0.000000 0.000000 0.000000 31.982447 2.851055 -25.833638 -8.992404 -16.802441 56.063323 -2.185472 3.482175 -27.102572 -0.120913 2.215132 -6.101696 3.396115 2.611402 7.372910 3.136113 4.262300 -7.340202 0.761006 1.893282 -12.102893 0.477175 -2.191226 -17.342930 -0.731607 -2.958535 11.777416 -0.619360 -1.470702 6.395971 0.000000 0.000000 0.000000 66.935539 2.730353 -49.881979 146.413345 -43.774917 106.173281 69.423369 -22.253713 16.982936 0.000000 0.000000 0.000000 -7.125000 0.000000 0.000000 24.512733 -7.923262 30.387146 0.000000 0.000000 0.000000 -36.256245 -14.540077 0.338629 -95.187841 -59.834831 -64.489162 -50.674085 -59.765866 1.638116 0.000000 0.000000 0.000000 7.125000 0.000000 0.000000 -19.208220 32.121145 -6.372780
30.528153 13.837279 11.947308 347.640860 -33.090980 376.919337 0.000000 0.000000 0.000000 5.611065 -16.669584 -58.790676 22.017748 19.902059 95.908774 -1.201605 -22.436821 -4.550491 1.046628 -6.505312 -18.258087 0.000000 0.000000 0.000000 38.824837 -0.202259 -26.813711 -9.407079 -17.062647 57.487653 -2.905084 3.140791 -31.511177 -0.001587 -0.094001 0.258275 4.719218 3.460645 7.488644 3.115965 5.606823 -7.525702 -0.233059 2.414630 -12.262257 2.750096 0.429136 -17.958361 -2.582439 0.310783 12.460483 -1.250013 0.050077 6.748284 0.000000 0.000000 0.000000 59.952022 8.974449 -38.395761 142.063279 -46.789904 103.077705 67.265181 -26.222223 15.438569 0.000000 0.000000 0.000000 -7.125000 0.000000 0.000000 23.816081 -3.063560 27.493832 0.000000 0.000000 0.000000 -31.445063 -4.781084 10.411029 -122.512716 -55.557902 -87.730796 -52.999423 -48.560175 -2.506825 0.000000 0.000000 0.000000 7.125000 0.000000 0.000000 -19.666177 25.697396 -9.742790
